<?xml version="1.0" encoding="utf-8"?>
<!-- Generator: Adobe Illustrator 24.0.1, SVG Export Plug-In . SVG Version: 6.00 Build 0)  -->
<svg version="1.1" id="Layer_1" xmlns="http://www.w3.org/2000/svg" xmlns:xlink="http://www.w3.org/1999/xlink" x="0px" y="0px"
	 viewBox="0 0 56.7 56.7" style="enable-background:new 0 0 56.7 56.7;" xml:space="preserve">
<style type="text/css">
	.st0{fill:#FFFFFF;}
</style>
<path class="st0" d="M52,24.5c-7.7,0-15.4,0-23.2,0c0,3.2,0,6.4,0,9.6c4.5,0,8.9,0,13.4,0c-0.5,3.1-2.3,5.9-4.9,7.6
	c-1.6,1.1-3.5,1.8-5.4,2.1c-1.9,0.3-3.9,0.4-5.9,0c-2-0.4-3.8-1.2-5.5-2.4c-2.6-1.8-4.6-4.5-5.6-7.6c-1-3.1-1.1-6.5,0-9.6
	c0.7-2.2,2-4.2,3.6-5.8c2-2,4.6-3.5,7.3-4.1c2.4-0.5,4.9-0.4,7.2,0.3c2,0.6,3.8,1.7,5.3,3.1c1.5-1.5,3-3,4.5-4.5
	c0.8-0.8,1.6-1.6,2.4-2.4c-2.3-2.1-5-3.8-7.9-4.9C32.1,4,26.1,4,20.8,5.8C14.8,7.9,9.7,12.4,6.8,18c-1,2-1.7,4-2.1,6.2
	c-1.1,5.3-0.3,11,2.1,15.9c1.6,3.2,3.9,6,6.7,8.2c2.6,2.1,5.7,3.6,8.9,4.5c4.1,1.1,8.5,1.1,12.6,0.1c3.7-0.9,7.3-2.6,10.1-5.2
	c3-2.7,5.1-6.3,6.2-10.2C52.6,33.3,52.7,28.8,52,24.5z"/>
</svg>
