<?xml version="1.0" encoding="iso-8859-1"?>
<!-- Generator: Adobe Illustrator 19.0.0, SVG Export Plug-In . SVG Version: 6.00 Build 0)  -->
<svg version="1.1" id="Layer_1" xmlns="http://www.w3.org/2000/svg" xmlns:xlink="http://www.w3.org/1999/xlink" x="0px" y="0px"
	 viewBox="0 0 512 512" style="enable-background:new 0 0 512 512;" xml:space="preserve">
<path style="fill:#CEE8FA;" d="M371.148,167.139l-26.288-26.288c-5.035-5.035-5.035-13.201,0-18.236l50.359-50.359
	c5.035-5.035,13.201-5.035,18.236,0l26.288,26.288c5.035,5.035,5.035,13.201,0,18.236l-50.359,50.359
	C384.347,172.176,376.183,172.176,371.148,167.139z"/>
<path style="fill:#2D527C;" d="M380.265,185.653c-7.38,0-14.318-2.874-19.538-8.092l-26.288-26.288
	c-5.218-5.218-8.093-12.158-8.093-19.538c0-7.381,2.875-14.321,8.095-19.541l50.357-50.357c5.22-5.218,12.158-8.092,19.539-8.092
	c7.38,0,14.318,2.874,19.538,8.09l26.288,26.29c5.218,5.217,8.093,12.156,8.093,19.538c0,7.38-2.875,14.319-8.095,19.539
	l-50.357,50.357C394.586,182.779,387.647,185.653,380.265,185.653z M356.582,131.734l23.683,23.684l47.753-47.755l-23.681-23.684
	L356.582,131.734z"/>
<path style="fill:#CEE8FA;" d="M98.544,439.743l-26.288-26.288c-5.035-5.035-5.035-13.201,0-18.236l50.359-50.359
	c5.035-5.035,13.201-5.035,18.236,0l26.288,26.288c5.035,5.035,5.035,13.201,0,18.236l-50.359,50.359
	C111.745,444.778,103.581,444.778,98.544,439.743z"/>
<path style="fill:#2D527C;" d="M107.663,458.256c-7.38,0-14.318-2.874-19.538-8.092l-26.288-26.29
	c-5.218-5.217-8.093-12.156-8.093-19.538c0-7.38,2.875-14.319,8.095-19.539l50.357-50.357c5.218-5.218,12.158-8.093,19.539-8.093
	c7.38,0,14.318,2.874,19.538,8.092l26.288,26.288c5.218,5.218,8.093,12.158,8.093,19.539c0,7.38-2.875,14.319-8.095,19.539
	l-50.357,50.357C121.981,455.381,115.043,458.256,107.663,458.256z M83.98,404.336l23.681,23.684l47.755-47.755l-23.683-23.684
	L83.98,404.336z"/>
<path style="fill:#CEE8FA;" d="M344.859,371.148l26.288-26.288c5.035-5.035,13.201-5.035,18.236,0l50.359,50.359
	c5.035,5.035,5.035,13.201,0,18.236l-26.288,26.288c-5.035,5.035-13.201,5.035-18.236,0l-50.359-50.359
	C339.824,384.347,339.824,376.183,344.859,371.148z"/>
<path style="fill:#2D527C;" d="M404.337,458.256c-7.382,0-14.319-2.875-19.539-8.093l-50.359-50.359
	c-5.218-5.22-8.093-12.158-8.093-19.539s2.875-14.321,8.095-19.541l26.285-26.285c5.221-5.22,12.159-8.093,19.539-8.093
	c7.382,0,14.321,2.875,19.539,8.093l50.359,50.357c5.218,5.22,8.093,12.158,8.093,19.539s-2.875,14.321-8.095,19.541l-26.285,26.285
	C418.655,455.383,411.717,458.256,404.337,458.256z M356.582,380.265l47.755,47.755l23.681-23.684l-47.753-47.755L356.582,380.265z"
	/>
<path style="fill:#CEE8FA;" d="M72.257,98.544l26.288-26.288c5.035-5.035,13.201-5.035,18.236,0l50.359,50.359
	c5.035,5.035,5.035,13.201,0,18.236l-26.288,26.288c-5.035,5.035-13.201,5.035-18.236,0l-50.359-50.357
	C67.222,111.745,67.222,103.581,72.257,98.544z"/>
<g>
	<path style="fill:#2D527C;" d="M131.735,185.653c-7.381,0-14.321-2.875-19.539-8.093l-50.359-50.357
		c-5.218-5.22-8.093-12.158-8.093-19.539c0-7.381,2.875-14.321,8.095-19.541l26.285-26.285c5.221-5.22,12.159-8.093,19.539-8.093
		c7.381,0,14.319,2.874,19.539,8.092l50.359,50.359c5.218,5.22,8.093,12.158,8.093,19.539c0,7.38-2.875,14.319-8.095,19.539
		l-26.285,26.285C146.051,182.779,139.113,185.653,131.735,185.653z M83.98,107.663l47.753,47.755l23.683-23.683l-47.753-47.756
		L83.98,107.663z"/>
	<path style="fill:#2D527C;" d="M447.385,302.219h-34.234c-15.236,0-27.632-12.396-27.632-27.631v-37.177
		c0-15.236,12.396-27.631,27.632-27.631h71.217c15.236,0,27.632,12.396,27.632,27.631v37.177c0,8.139-6.599,14.736-14.736,14.736
		c-8.137,0-14.736-6.598-14.736-14.736v-35.335h-67.536v33.494h32.394c8.137,0,14.736,6.598,14.736,14.736
		C462.122,295.623,455.523,302.219,447.385,302.219z"/>
	<path style="fill:#2D527C;" d="M98.849,302.219H27.632C12.396,302.219,0,289.823,0,274.589v-37.177
		c0-8.139,6.599-14.736,14.736-14.736s14.736,6.598,14.736,14.736v35.335h67.536v-33.494H64.267
		c-8.137,0-14.736-6.598-14.736-14.736c0-8.139,6.599-14.736,14.736-14.736h34.582c15.236,0,27.632,12.396,27.632,27.631v37.177
		C126.481,289.823,114.085,302.219,98.849,302.219z"/>
	<path style="fill:#2D527C;" d="M274.589,512H237.41c-8.137,0-14.736-6.597-14.736-14.736s6.599-14.736,14.736-14.736h35.337
		v-67.536h-33.494v33.089c0,8.139-6.599,14.736-14.736,14.736s-14.736-6.597-14.736-14.736v-34.931
		c0-15.236,12.395-27.631,27.631-27.631h37.179c15.236,0,27.631,12.396,27.631,27.631v71.218
		C302.219,499.604,289.825,512,274.589,512z"/>
	<path style="fill:#2D527C;" d="M274.589,126.481H237.41c-15.236,0-27.631-12.396-27.631-27.631v-71.22
		C209.779,12.395,222.174,0,237.41,0h37.179c8.137,0,14.736,6.598,14.736,14.736s-6.599,14.736-14.736,14.736h-35.337v67.536h33.494
		V64.795c0-8.139,6.599-14.736,14.736-14.736c8.137,0,14.736,6.598,14.736,14.736v34.054
		C302.219,114.085,289.825,126.481,274.589,126.481z"/>
	<path style="fill:#2D527C;" d="M196.046,270.736h-18.618c-8.137,0-14.736-6.598-14.736-14.736c0-8.139,6.599-14.736,14.736-14.736
		h18.618c8.137,0,14.736,6.598,14.736,14.736C210.783,264.139,204.185,270.736,196.046,270.736z"/>
	<path style="fill:#2D527C;" d="M265.309,270.736H246.69c-8.137,0-14.736-6.598-14.736-14.736c0-8.139,6.599-14.736,14.736-14.736
		h18.619c8.137,0,14.736,6.598,14.736,14.736C280.045,264.139,273.448,270.736,265.309,270.736z"/>
	<path style="fill:#2D527C;" d="M334.57,270.736h-18.618c-8.137,0-14.736-6.598-14.736-14.736c0-8.139,6.599-14.736,14.736-14.736
		h18.618c8.137,0,14.736,6.598,14.736,14.736C349.307,264.139,342.709,270.736,334.57,270.736z"/>
</g>
<g>
</g>
<g>
</g>
<g>
</g>
<g>
</g>
<g>
</g>
<g>
</g>
<g>
</g>
<g>
</g>
<g>
</g>
<g>
</g>
<g>
</g>
<g>
</g>
<g>
</g>
<g>
</g>
<g>
</g>
</svg>
